<?xml version="1.0" standalone="no"?>
<!DOCTYPE svg PUBLIC "-//W3C//DTD SVG 20010904//EN"
 "http://www.w3.org/TR/2001/REC-SVG-20010904/DTD/svg10.dtd">
<svg version="1.0" xmlns="http://www.w3.org/2000/svg"
 width="512.000000pt" height="512.000000pt" viewBox="0 0 512.000000 512.000000"
 preserveAspectRatio="xMidYMid meet">

<g transform="translate(0.000000,512.000000) scale(0.100000,-0.100000)"
fill="#000000" stroke="none">
<path d="M2210 3980 c-21 -21 -22 -28 -16 -107 11 -142 52 -297 120 -454 6
-14 -7 -22 -76 -44 -138 -46 -325 -119 -473 -184 -209 -93 -340 -168 -550
-315 -9 -7 -34 10 -87 58 -217 197 -489 343 -773 416 -137 35 -168 37 -195 10
-27 -27 -25 -52 11 -162 81 -240 217 -473 367 -625 l58 -59 -64 -70 c-128
-139 -250 -346 -346 -585 -54 -135 -58 -181 -20 -205 22 -15 33 -16 97 -4 113
19 321 92 447 155 142 71 287 170 403 274 l89 79 121 -83 c242 -164 443 -268
646 -335 75 -25 115 -43 114 -52 -1 -7 -24 -78 -52 -158 -27 -80 -59 -193 -72
-252 -21 -101 -21 -108 -5 -132 27 -42 54 -41 167 5 238 96 528 246 642 331
l58 44 72 -8 c124 -15 451 -11 582 6 152 21 285 47 285 56 0 4 -22 49 -49 101
-300 572 -288 1192 34 1685 31 48 55 88 53 90 -2 1 -45 12 -94 23 -115 26
-293 48 -453 56 l-125 7 -95 67 c-283 198 -615 368 -755 387 -37 5 -47 3 -66
-16z"/>
<path d="M3891 3343 c-60 -81 -149 -250 -184 -349 -56 -156 -72 -263 -72 -469
1 -208 15 -299 75 -487 34 -105 175 -397 196 -405 40 -15 339 124 491 229 130
89 242 188 340 298 105 118 243 322 243 360 0 16 -27 72 -63 132 -196 326
-486 576 -822 707 -159 63 -146 64 -204 -16z m348 -551 c45 -33 63 -66 63
-115 0 -149 -185 -201 -262 -75 -48 78 -4 187 85 211 33 9 88 -1 114 -21z"/>
</g>
</svg>
